Coordinates
nRows=5
nColumns=38

# SIMM Motion File Header:
name Coordinates
datacolumns 38
datarows 5
otherdata 1
range 1.34400000000000010000 1.34800000000000010000

Units are S.I. units (second, meters, Newtons, ...)
Angles are in degrees.

endheader
time	pelvis_tilt	pelvis_list	pelvis_rotation	pelvis_tx	pelvis_ty	pelvis_tz	hip_flexion_r	hip_adduction_r	hip_rotation_r	knee_angle_r	ankle_angle_r	subtalar_angle_r	mtp_angle_r	hip_flexion_l	hip_adduction_l	hip_rotation_l	knee_angle_l	ankle_angle_l	subtalar_angle_l	mtp_angle_l	lumbar_extension	lumbar_bending	lumbar_rotation	arm_flex_r	arm_add_r	arm_rot_r	elbow_flex_r	pro_sup_r	wrist_flex_r	wrist_dev_r	arm_flex_l	arm_add_l	arm_rot_l	elbow_flex_l	pro_sup_l	wrist_flex_l	wrist_dev_l
      1.34400000000000010000	     -1.22667474045428370000	      4.01359471489752910000	     -0.38795524025924200000	      1.12086023065114530000	      0.92498120848335963000	     -0.42488205006938945000	     34.63754694727975200000	      1.28855723744893710000	      2.10408706591674080000	   -121.87445370733131000000	      8.69701158237604060000	     -0.00000000000029501582	      0.00000000000010150062	      3.08216301162360210000	     12.28062173225759000000	      4.08216812549664000000	    -38.84725288272936400000	     26.10378648805589200000	     -0.00000000000002765493	      0.00000000000007062177	    -17.88796563228832100000	     -3.40356207998276710000	    -10.38561275093945600000	    -31.38407738029493300000	    -14.98871519598621700000	     -3.09069734768436440000	    101.86854419881691000000	     93.11172642377286500000	     -0.00000000000000544232	      0.00000000000001379049	    -17.72144135760988700000	    -14.58889357784245700000	    -16.67562015649137300000	    123.27629847553115000000	     97.08532371510565900000	      0.00000000000000781490	      0.00000000000004774286
      1.34500000000000000000	     -1.29699955415035960000	      3.88101832369343750000	     -0.43076305409698956000	      1.12103691515309390000	      0.92517683009091056000	     -0.42485238002366088000	     35.09936073155791500000	      1.45500220409378070000	      2.10550741248993800000	   -121.57579706878026000000	      8.81979763630715040000	     -0.00000000000029588960	      0.00000000000010180311	      2.62498551537497440000	     12.13767311020557400000	      4.21066551562935750000	    -38.46627448653530500000	     25.92906058209593200000	     -0.00000000000002819513	      0.00000000000007153726	    -17.76250096877906200000	     -3.23819416788595400000	    -10.50637376777127400000	    -31.62497871831295300000	    -15.09048689378354200000	     -3.14610020444808260000	    102.13822270869267000000	     93.17127283395517200000	     -0.00000000000000546855	      0.00000000000001383257	    -17.64334764524924600000	    -14.47809525900171000000	    -16.66794015711211000000	    123.53099040324327000000	     97.09674126764096500000	      0.00000000000000784197	      0.00000000000004769085
      1.34600000000000010000	     -1.36827466439241640000	      3.74573859667619760000	     -0.47259950112204446000	      1.12122223086378400000	      0.92537915409755156000	     -0.42482467998410439000	     35.55637726524014400000	      1.62228994452331030000	      2.10175522473726820000	   -121.26698100632683000000	      8.94236627028812410000	     -0.00000000000029677057	      0.00000000000010210564	      2.16679836265726730000	     11.99077855983381400000	      4.33907795807102840000	    -38.07855405546174400000	     25.74231636366235800000	     -0.00000000000002877266	      0.00000000000007240580	    -17.63564773288511800000	     -3.06922572113404520000	    -10.62437204628254200000	    -31.86953502068031700000	    -15.19158331911775400000	     -3.20655170413423550000	    102.41029739673023000000	     93.23473905900274900000	     -0.00000000000000549512	      0.00000000000001387474	    -17.56455142178295900000	    -14.36860158524895000000	    -16.65313946761810400000	    123.78809718929874000000	     97.10394093038939900000	      0.00000000000000787241	      0.00000000000004763398
      1.34700000000000000000	     -1.44055751770159990000	      3.60771661839496400000	     -0.51347735973060260000	      1.12141602177444750000	      0.92558787420402189000	     -0.42479889676556415000	     36.00863826881282400000	      1.79041164268459110000	      2.09282088326825870000	   -120.94811788523091000000	      9.06470357911061520000	     -0.00000000000029765507	      0.00000000000010240862	      1.70784283393071700000	     11.83988958201817700000	      4.46724180374376180000	    -37.68437976788256800000	     25.54363091605700100000	     -0.00000000000002938618	      0.00000000000007331102	    -17.50736595025956500000	     -2.89661123914003540000	    -10.73953601368593700000	    -32.11779333337055700000	    -15.29184537869347000000	     -3.27213074552854840000	    102.68461235726002000000	     93.30190008950077600000	     -0.00000000000000552183	      0.00000000000001391505	    -17.48491709856342500000	    -14.26053379123899800000	    -16.63105991078849000000	    124.04733483766350000000	     97.10690532567916500000	      0.00000000000000790362	      0.00000000000004756770
      1.34800000000000010000	     -1.51390627896370680000	      3.46691511258357510000	     -0.55341188082488180000	      1.12161812471010310000	      0.92580267471846089000	     -0.42477497364270544000	     36.45619025410383800000	      1.95936046692215380000	      2.07870212950845050000	   -120.61932149922816000000	      9.18678480803477800000	     -0.00000000000029854190	      0.00000000000010271249	      1.24836865219935870000	     11.68496184504339800000	      4.59498775523490630000	    -37.28406044299968200000	     25.33309397453213000000	     -0.00000000000003004365	      0.00000000000007426822	    -17.37761381988119800000	     -2.72030726213614130000	    -10.85179935608459100000	    -32.36979670092109300000	    -15.39112088550121300000	     -3.34290353891676340000	    102.96102094085401000000	     93.37251829172424800000	     -0.00000000000000554821	      0.00000000000001395493	    -17.40431940023240300000	    -14.15400731988965800000	    -16.60156342614241600000	    124.30842711752145000000	     97.10562937694375300000	      0.00000000000000793440	      0.00000000000004747475
